<svg width="36" height="36" viewBox="0 0 36 36" fill="none" xmlns="http://www.w3.org/2000/svg">
<g clip-path="url(#clip0_897_618)">
<path d="M31 0H5C2.23858 0 0 2.23858 0 5V31C0 33.7614 2.23858 36 5 36H31C33.7614 36 36 33.7614 36 31V5C36 2.23858 33.7614 0 31 0Z" fill="#F9FAFE"/>
<g clip-path="url(#clip1_897_618)">
<path d="M20.5468 21.6596L19.3894 20.5424C19.1145 20.2761 18.9511 19.9077 18.937 19.5165C18.9229 19.1253 19.0592 18.7449 19.3142 18.4582L20.5774 19.6785L23.992 16.6595C24.59 16.1315 25.4854 16.2035 25.9989 16.8203L20.5456 21.6584L20.5468 21.6596Z" fill="black"/>
<path d="M19.3096 7H14.6776C10.981 7.0312 8 10.1474 8 13.98H14.3181C14.4332 10.709 16.486 7.99354 19.3096 7Z" fill="black"/>
<path d="M14.7212 18.6105C15.6906 15.8759 18.3156 13.8528 21.3154 13.8528H21.5175C24.9321 13.8288 27.8262 10.7246 28.0001 7H21.6244C17.8902 7.0324 14.8657 10.0946 14.7212 13.98V18.6093V18.6105Z" fill="black"/>
<path d="M21.4682 15.5193V14.2642H21.3154C17.7492 14.2642 14.7365 17.2892 14.7212 20.8758V27.9998C17.5119 27.9998 20.0135 26.2143 21.0158 23.5084H20.8325C19.3719 23.5108 18.0347 22.6577 17.3744 21.3042C16.714 19.9506 16.8433 18.3259 17.7081 17.1032C18.5729 15.8805 20.0276 15.2673 21.4682 15.5181V15.5193Z" fill="black"/>
</g>
</g>
<defs>
<clipPath id="clip0_897_618">
<rect width="36" height="36" fill="white"/>
</clipPath>
<clipPath id="clip1_897_618">
<rect width="20" height="21" fill="white" transform="translate(8 7)"/>
</clipPath>
</defs>
</svg>
